<?xml version="1.0" encoding="UTF-8"?><svg id="uuid-64689bf8-2c45-485a-8e19-3e3a8bd38f28" xmlns="http://www.w3.org/2000/svg" viewBox="0 0 128.02 54.15"><path d="M7.95,23.24c-.88.21-1.75.43-2.63.64-.36.09-.73.18-1.09.27-.13-1.75-.26-3.51-.39-5.26,3.25-1.15,6.47-2.38,9.65-3.72.91-.38,1.54-1.2,1.27-2.24-.23-.86-1.33-1.65-2.24-1.27-3.05,1.28-6.13,2.47-9.25,3.58-.95-1.26-3.42-.94-3.27.99.46,6.15.91,12.31,1.37,18.46.17,2.32,3.81,2.34,3.64,0-.17-2.29-.34-4.58-.51-6.87.09-.02.17-.04.25-.06l4.16-1.02c2.27-.56,1.31-4.06-.97-3.51Z"/><path d="M40.39,26.75c-1.57.4-3.15.8-4.72,1.19-.75.19-1.49.38-2.24.57-.09.02-.19.05-.29.08,0-.03,0-.07,0-.1.01-.47-.12-.85-.35-1.13-.09-.43-.17-.85-.25-1.28.82-.2,1.61-.5,2.38-.89.88-.44,1.13-1.68.65-2.49-.52-.89-1.61-1.1-2.49-.65-.36.18-.72.32-1.1.43-.21-1.73-.34-3.47-.4-5.22,2.46-.82,4.94-1.59,7.44-2.28,2.25-.63,1.3-4.14-.97-3.51-2.84.79-5.65,1.66-8.43,2.61-.54.18-.89.53-1.08.95-.39.29-.65.75-.63,1.39.05,2.5.26,4.98.59,7.45-.23.64-.14,1.41.29,1.92.21,1.24.45,2.47.72,3.7-.13.22-.22.48-.24.78-.1,1.02.55,1.95,1.53,2.26,1.05.34,2.32-.21,3.33-.46,2.4-.61,4.81-1.21,7.21-1.82,2.27-.57,1.31-4.08-.97-3.51Z"/><path d="M51.88,24.62c-1.17.16-2.35.32-3.52.48-.5.07-1.01.14-1.51.21-.03,0-.06,0-.09.01-.01-.21-.02-.42-.04-.63-.01-.21-.05-.39-.12-.56-.08-.65-.15-1.3-.23-1.95.68-.09,1.35-.26,2-.49.92-.34,1.55-1.24,1.27-2.24-.24-.89-1.31-1.61-2.24-1.27-.52.19-.97.31-1.44.39-.14-1.31-.25-2.63-.34-3.94,2.03-.64,4.08-1.19,6.1-1.86,2.21-.74,1.26-4.25-.97-3.51-2.13.71-4.3,1.28-6.44,1.97-1.08-.36-2.47.19-2.42,1.65.15,4.29.76,8.51,1.23,12.77,0,.06.02.11.03.16-.48.52-.7,1.29-.31,2.09.81,1.67,2.73,1.23,4.2,1.03,1.93-.26,3.86-.53,5.79-.79.98-.13,1.5-1.38,1.27-2.24-.28-1.05-1.27-1.4-2.24-1.27Z"/><path d="M69.69,6.68c-.39-1.67-3.21-1.8-3.51,0-.6,3.7-1.21,7.4-1.81,11.11-.45.46-.65,1.2-.48,1.8.03.12.08.24.13.34-.12.73-.24,1.45-.36,2.18-.48.03-1.03,0-1.33,0-.84.04-1.68.03-2.53,0-.06,0-.47-.05-.75-.07,0,0,0,0,0,0-.11-.83-.2-1.66-.3-2.5-.36-3.25-.59-6.51-.73-9.78-.1-2.33-3.74-2.34-3.64,0,.11,2.51.27,5.02.5,7.53.11,1.17.23,2.34.37,3.5.12,1,.12,2.16.48,3.09.82,2.18,3.67,1.91,5.58,1.9,1.84-.01,5.22.26,5.82-2.03.08-.28.09-.55.04-.79.13-.78.26-1.56.38-2.35,1.05-.16,2.11-.3,3.18-.4.02,0,.03,0,.05,0,.23.48.47.95.71,1.42,1.06,2.09,4.2.25,3.14-1.84-2.14-4.19-3.89-8.53-4.96-13.11ZM68.18,16.87c.1-.63.21-1.26.31-1.89.23.59.47,1.18.72,1.76-.34.04-.69.08-1.03.13Z"/><path d="M97.62,13.99c-1.31.05-2.8.19-3.85-.74-.99-.87-1.27-2.26-1.26-3.52,0-1.09.17-2.32.66-3.32-.09,1.5,2.33,2.54,3.48.96,1.57-2.16.87-5.57-2.19-5.7-2.67-.11-4.45,2.3-5.11,4.62-.39,1.38-.58,2.92-.45,4.41-.39-2.24-1.03-4.45-1.57-6.64-.56-2.27-4.07-1.31-3.51.97.47,1.91.98,3.82,1.38,5.74.19.91.37,1.84.4,2.78.01.42.01.85-.07,1.26-.01.05-.03.1-.04.16-.05-.07-.11-.14-.16-.22-.26-.36-.51-.73-.75-1.1-.49-.74-.95-1.51-1.38-2.28-.89-1.62-1.64-3.3-2.26-5.04-.22-.62-.62-1-1.07-1.17,0-.04,0-.07,0-.11.14-2.34-3.5-2.33-3.64,0-.3,5.17-.44,10.35-.41,15.53.01,2.14,2.89,2.36,3.57.48.82-2.24,1.08-4.56,1.2-6.91.08.13.16.27.24.4,1.13,1.84,2.88,5.45,5.55,4.67,2.53-.74,3-4.13,2.8-6.33-.03-.3-.06-.6-.1-.89.19.86.5,1.68.96,2.42,1.7,2.75,4.53,3.34,7.56,3.22,2.33-.09,2.34-3.73,0-3.64Z"/><path d="M111,14.06c-1.29-.02-2.59-.06-3.88-.16-.65-.05-1.29-.1-1.93-.17-.12-.01-.27-.02-.44-.02-.02-.66-.03-1.31-.05-1.97.9-.03,1.8-.17,2.68-.38,2.27-.55,1.31-4.06-.97-3.51-.6.15-1.2.23-1.8.25-.03-1.21-.06-2.41-.09-3.62,1.37-.38,2.76-.7,4.17-.95,2.3-.41,1.33-3.92-.97-3.51-1.31.23-2.6.53-3.88.87-.96-.79-2.73-.49-2.99.92-.01,0-.02,0-.04.01-1.88.65-1.46,3.31.08,3.59.07,2.98.15,5.96.22,8.93-.4.78-.32,1.79.66,2.34,1.24.7,2.97.65,4.37.77,1.61.14,3.23.21,4.85.23,2.34.03,2.34-3.61,0-3.64Z"/><path d="M28.03,27.05c-2.06-1.74-4.47-2.71-7-3.41,1.19-1.44,1.99-3.11,1.71-5.1-.41-2.9-3.16-4.72-6-3.91-3.42.98-3.45,4.46-3.37,7.38.11,3.77.25,7.54.42,11.31.11,2.33,3.75,2.34,3.64,0-.11-2.29-.2-4.59-.28-6.88,2.87.62,6.01,1.24,8.31,3.18,1.78,1.5,4.36-1.06,2.57-2.57ZM16.97,19.25c.21-1.37,1.98-1.67,2.19-.14.18,1.35-1.05,2.57-2.14,3.5,0-.03,0-.06,0-.08-.03-1.05-.2-2.24-.04-3.28Z"/><path d="M45.58,35.47c-1.39-.52-3.14-.16-3.96,1.16-.36.58-.46,1.19-.41,1.8-.77-.6-1.67-1.02-2.64-1.18-1.93-.31-3.97.81-3.97,2.96.01,4.35,6.64,5.74,9.92,5.55.16,0,.31-.04.45-.08.87.21,1.9-.11,2.29-1.18.98-2.67,1.79-7.75-1.68-9.04Z"/><path d="M79.39,36.13c.14-1.11.51-2.27.64-3.3.06-.46.11-.93.14-1.39,0-.04,0-.1,0-.17-.64.9-.88,2.09-.92,3.17-.02.57.03,1.13.13,1.69Z"/><path d="M69.32,37.49c-.03-.17-.1-.31-.24-.41.08.08-.04.16-.18.53-.23.61-.36,1.28-.38,1.94-.04,1.19.23,2.88,1.1,3.77.27.27.56.39.85.39.63,0,1.23-.54,1.46-1.23.42-1.23-.11-2.46-.81-3.48-.81-.01-1.63-.49-1.82-1.51Z"/><polygon points="55.16 45.99 55.16 45.98 55.16 45.98 55.16 45.99"/><path d="M55.55,47.07c.53.87,1.48,1.36,2.44,1.36.68,0,1.37-.25,1.92-.8,0,0,.01-.02.02-.02-1.15-.19-2.3-.36-3.46-.49-.29-.03-.6-.04-.92-.05Z"/><path d="M93.67,29.62c-.1,0-.2-.01-.31-.01-.45,0-.98.06-1.45.22.67,2.08,1.35,4.15,2.02,6.23,1.24-.12,2.5-.64,3.35-1.53.87-.9.28-2.13-.36-3.02-.76-1.07-1.93-1.79-3.25-1.89ZM95.28,33.48l-.29-.9-.08-.24c.12.11.23.24.33.38.18.25.28.44.34.56-.09.07-.19.14-.29.21Z"/><path d="M104.9,29.08c.3-.24.6-.5.88-.76-.32-.23-.66-.45-1-.65.04.47.08.94.12,1.41Z"/><path d="M127.48,17.97c-.18-2.02-1.73-3.43-3.77-3.43-1.16,0-2.26.47-3.01,1.3-.73.79-1.07,1.85-.97,2.96.06.66.12,1.29.17,1.91-.07-.07-.15-.15-.22-.22-.59-.89-1.5-1.47-2.6-1.63-.18-.03-.36-.04-.54-.04-.88,0-1.79.32-2.51.89-.88.69-1.4,1.69-1.4,2.74-.01,1.52,0,3.01.04,4.46-2.35-2.68-4.93-4.51-7.69-5.44-.68-.23-1.36-.35-2-.35-1.23,0-2.34.42-3.19,1.22-.98.91-1.34,1.96-1.42,2.92-1.53-.88-3.3-1.37-5.11-1.37-.16,0-.31,0-.47.01-2.78.13-5.81,1.62-7.13,4.22-.38-1.35-1.25-2.66-3.11-3.28-.49-.16-.99-.24-1.5-.24-2.63,0-4.55,2.09-5.25,2.99-1.22,1.56-1.99,3.62-2.17,5.8,0,.09,0,.19-.01.28-.42-.51-.9-.95-1.43-1.3.53-.75.78-1.67.67-2.65-.22-1.9-1.92-3.45-3.79-3.45-.28,0-.56.04-.83.1l-8.87,2.27-2.76.71-1.43.37c-.15.04-.3.08-.46.12-1.41.35-2.88.72-4.3,1.66-1.4.92-2,2.53-1.53,4.1.51,1.69,2.13,2.92,3.87,2.92.76,0,1.51-.23,2.17-.67.4-.27,1.21-.43,1.93-.58.25-.05.51-.1.77-.16.51,1.49.87,2.99,1.09,4.47v.04s0,0,0,0c-1.38-.19-2.64-.32-3.83-.39-.14,0-.28-.01-.42-.01-1.61,0-2.99.57-3.9,1.59-.62.7-1.3,1.95-1.06,3.89.53,4.17,4.23,7.44,8.42,7.44.44,0,.88-.04,1.32-.11,2.75-.45,4.87-1.86,6.13-4.07.37-.66.66-1.36.87-2.09,1.22.97,2.73,1.51,4.33,1.51,2.03,0,3.97-.9,5.33-2.48.34-.39.62-.8.86-1.21l.4.75c.72,1.35,2.02,2.15,3.49,2.15,1.28,0,2.49-.61,3.22-1.64.72-1.02.88-2.32.44-3.58-.02-.05-.03-.09-.05-.14.16.04.32.08.48.11.82.2,1.6.38,2.33.64,1.48.52,2.88,1.24,4.17,2.12.67.46,1.44.7,2.22.7,1.73,0,3.31-1.18,3.84-2.88.3-.96.19-1.94-.26-2.78,1.65-.53,3.11-1.42,4.27-2.59.72.64,1.67,1.03,2.69,1.03,1.23,0,2.34-.58,3.04-1.6.89-1.28,1.01-2.74.9-4.06.08-.06.17-.13.25-.19.47.65.93,1.37,1.4,2.16.66,1.12,1.78,1.76,3.07,1.76.85,0,1.7-.29,2.41-.8.58.31,1.26.49,2,.49,1.77,0,3.2-1.07,3.65-2.61.68,1.01,1.77,1.59,3.01,1.59,2,0,3.75-1.49,3.99-3.38.62-4.89.27-9.69-.22-15.01ZM85.48,35.06c.11-.65.19-1.31.27-1.97.07.09.14.19.22.27.39.43.88.77,1.41.99l.6,1.85c-.86-.27-1.72-.53-2.58-.78.03-.12.05-.25.08-.37ZM58.89,51.99c-.33.05-.66.08-.98.08-3.14,0-5.95-2.45-6.36-5.63-.26-2.07,1.01-3.14,2.89-3.14.1,0,.2,0,.3,0,2.1.12,4.21.43,6.28.8,0-.99-.16-1.99-.28-2.83-.33-2.3-.98-4.51-1.86-6.64-.51.13-1.01.26-1.52.39-1.14.29-2.6.43-3.6,1.09-.34.23-.69.32-1.03.32-1.57,0-2.8-2.14-1.19-3.21,1.27-.84,2.68-1.13,4.13-1.5,1.4-.36,2.79-.71,4.19-1.07,2.96-.76,5.91-1.51,8.87-2.27.1-.03.21-.04.31-.04.84,0,1.63.83,1.72,1.61.12,1.06-.61,1.79-1.57,2.03-2.25.58-4.5,1.15-6.75,1.73,2.37,6.05,4.67,16.91-3.55,18.26ZM74.31,45.55c-1.03,1.19-2.4,1.76-3.76,1.76-1.45,0-2.89-.65-3.88-1.9.28-3.13-.4-6.5-1.17-9.13.11-.27.23-.54.36-.81.11-.21.22-.39.34-.56l3.49-.89c.25-.06.48-.14.7-.24.79.35,1.5.96,1.97,1.77.45.03.89.23,1.25.69,2.04,2.63,3.09,6.53.68,9.31ZM93.45,44.75c-.34,0-.7-.1-1.04-.34-1.45-.99-3-1.78-4.65-2.37-1.5-.53-3.07-.77-4.58-1.24-.96-.3-2.04-.73-2.81-1.43.64,1.6,1.43,3.16,1.98,4.7.5,1.44-.57,2.45-1.7,2.45-.63,0-1.27-.32-1.66-1.05-.43-.82-.87-1.63-1.3-2.45.4-2.59-.5-5.32-1.98-7.48-.06-.65-.07-1.31-.01-1.98.14-1.66.7-3.37,1.74-4.7.84-1.08,2.18-2.19,3.61-2.19.28,0,.56.04.85.14,2.06.69,2.06,2.86,1.93,4.66-.08,1.09-.2,2.17-.38,3.25-.09.52-.41,1.32-.35,1.84.05.45-.36.26.32.45,1.83.53,3.63,1.03,5.38,1.65l.13.4c.35,1.07,1.06,1.87,2.03,2.28.48.25,1.02.39,1.61.42.19,0,.38.01.56.01.58,0,1.14-.04,1.69-.11,1.32,1.12.14,3.09-1.35,3.09ZM93.11,39.7c-.16,0-.32,0-.48-.01-.32-.01-.59-.1-.81-.23-.41-.15-.75-.47-.94-1.03-.63-1.94-1.26-3.88-1.89-5.82-1,0-2.04-.74-1.93-2.03.25-2.84,3.2-4.48,5.81-4.6.12,0,.25,0,.37,0,2.05,0,4.01.77,5.5,2.14.18.69.35,1.4.51,2.13.2,2.08.46,4.11.75,6.03.03.17.07.34.12.51-1.75,2.01-4.42,2.92-7.03,2.92ZM111.36,34.88c-.73-1.24-1.55-2.47-2.48-3.6-.14-.16-.29-.32-.44-.48-.84.82-1.76,1.55-2.75,2.2.26,1.36.37,2.78-.37,3.85-.34.49-.83.7-1.33.7-.87,0-1.77-.65-1.91-1.59-.31-2.01-.55-4.02-.75-6.04-.19-.89-.41-1.77-.64-2.65-.33-1.23-.51-2.45.51-3.4.51-.47,1.13-.66,1.78-.66.45,0,.9.09,1.34.24,3.23,1.09,5.89,3.53,7.97,6.28.84,1.03,1.59,2.12,2.2,3.34.64,1.3-.66,2.55-1.84,2.55-.49,0-.97-.22-1.28-.74ZM125.63,32.73c-.12.93-1.04,1.56-1.93,1.56-.51,0-1.01-.21-1.32-.71-1.17-1.87-2.35-3.76-3.67-5.54.07,1.92.08,3.83.04,5.76-.02,1.02-.85,1.51-1.71,1.51-.21,0-.42-.03-.63-.09.43-.99.41-2.08-.07-3.07-.41-.82-.9-1.64-1.48-2.46-.13-2.41-.18-4.81-.16-7.22,0-.9,1-1.56,1.84-1.56.08,0,.15,0,.22.02.61.09,1.03.43,1.27.89,1.6,1.55,2.99,3.27,4.27,5.06-.02-2.75-.27-5.5-.52-8.25-.12-1.28.92-2,1.91-2,.81,0,1.6.48,1.7,1.54.44,4.84.84,9.72.23,14.56Z"/></svg>